# xmcd CD database file
#
# Track frame offsets:
#	150
#	17010
#	31147
#	48387
#	63391
#	81714
#	96027
#	113432
#	132203
#	144878
#	159971
#	175482
#
# Disc length: 2610 seconds
#
# Revision: 0
# Processed by: cddbd v1.5.2PL0 Copyright (c) Steve Scherf et al.
# Submitted via: CDex 1.51
#
DISCID=930a300c
DTITLE=Moosters - Executioner
DYEAR=2006
DGENRE=Blues
TTITLE0=Fat Fun
TTITLE1=Girl's Got A Hold Of Me
TTITLE2=Executioner
TTITLE3=What Goes Up Comes Down
TTITLE4=Shimmering Light
TTITLE5=I Like You
TTITLE6=Bad Karma
TTITLE7=California
TTITLE8=Party At Home
TTITLE9=Bow Down and Meet The Blues
TTITLE10=33 Days
TTITLE11=Let's Buzz
EXTD=YEAR: 2006
EXTT0=
EXTT1=
EXTT2=
EXTT3=
EXTT4=
EXTT5=
EXTT6=
EXTT7=
EXTT8=
EXTT9=
EXTT10=
EXTT11=
PLAYORDER=
